<svg width="22" height="22" viewBox="0 0 22 22" fill="none" xmlns="http://www.w3.org/2000/svg">
<path d="M20.1406 16.5313C19.3963 15.7813 17.5934 14.6867 16.7188 14.2456C15.5797 13.6719 15.4859 13.625 14.5906 14.2902C13.9934 14.7341 13.5964 15.1306 12.8975 14.9816C12.1986 14.8325 10.6798 13.992 9.35 12.6664C8.02015 11.3408 7.13093 9.77797 6.9814 9.08141C6.83187 8.38485 7.235 7.9925 7.67468 7.39391C8.29437 6.55016 8.2475 6.40953 7.71781 5.27047C7.30484 4.38453 6.17843 2.59859 5.42562 1.85797C4.62031 1.0625 4.62031 1.20313 4.1014 1.41875C3.67895 1.5965 3.27366 1.81255 2.89062 2.06422C2.14062 2.5625 1.72437 2.97641 1.43328 3.59844C1.14218 4.22047 1.0114 5.67875 2.51468 8.40969C4.01796 11.1406 5.07265 12.537 7.25562 14.7139C9.43859 16.8908 11.1172 18.0613 13.5711 19.4375C16.6067 21.1377 17.7711 20.8063 18.395 20.5156C19.0189 20.225 19.4347 19.8125 19.9339 19.0625C20.1862 18.6801 20.4028 18.2753 20.5808 17.8531C20.7969 17.3361 20.9375 17.3361 20.1406 16.5313Z" stroke="#222222" stroke-width="2" stroke-miterlimit="10"/>
</svg>
